<svg width="43" height="43" viewBox="0 0 43 43" fill="none" xmlns="http://www.w3.org/2000/svg">
<g filter="url(#filter0_d)">
<path fill-rule="evenodd" clip-rule="evenodd" d="M21.8242 33.4976C21.7164 33.4992 21.6083 33.5 21.5 33.5C11.835 33.5 4 27.0081 4 19C4 10.9919 11.835 4.5 21.5 4.5C31.165 4.5 39 10.9919 39 19C39 21.0253 38.4989 22.9536 37.5938 24.7044C36.3794 27.1797 34.5051 29.3888 32.472 31.2945C29.3743 34.1981 25.7901 36.39 23.2378 37.6253C22.5627 37.9521 21.8242 37.4404 21.8242 36.7278V33.4976ZM15.5 19.75C15.5 21.1307 14.3807 22.25 13 22.25C11.6193 22.25 10.5 21.1307 10.5 19.75C10.5 18.3693 11.6193 17.25 13 17.25C14.3807 17.25 15.5 18.3693 15.5 19.75ZM21.5 22.25C22.8807 22.25 24 21.1307 24 19.75C24 18.3693 22.8807 17.25 21.5 17.25C20.1193 17.25 19 18.3693 19 19.75C19 21.1307 20.1193 22.25 21.5 22.25ZM32.5 19.75C32.5 21.1307 31.3807 22.25 30 22.25C28.6193 22.25 27.5 21.1307 27.5 19.75C27.5 18.3693 28.6193 17.25 30 17.25C31.3807 17.25 32.5 18.3693 32.5 19.75Z" fill="#FBFBFB"/>
<path fill-rule="evenodd" clip-rule="evenodd" d="M21.5 33.5C31.165 33.5 39 27.0081 39 19C39 10.9919 31.165 4.5 21.5 4.5C11.835 4.5 4 10.9919 4 19C4 27.0081 11.835 33.5 21.5 33.5ZM13 22.25C14.3807 22.25 15.5 21.1307 15.5 19.75C15.5 18.3693 14.3807 17.25 13 17.25C11.6193 17.25 10.5 18.3693 10.5 19.75C10.5 21.1307 11.6193 22.25 13 22.25ZM24 19.75C24 21.1307 22.8807 22.25 21.5 22.25C20.1193 22.25 19 21.1307 19 19.75C19 18.3693 20.1193 17.25 21.5 17.25C22.8807 17.25 24 18.3693 24 19.75ZM30 22.25C31.3807 22.25 32.5 21.1307 32.5 19.75C32.5 18.3693 31.3807 17.25 30 17.25C28.6193 17.25 27.5 18.3693 27.5 19.75C27.5 21.1307 28.6193 22.25 30 22.25Z" fill="white"/>
</g>
<defs>
<filter id="filter0_d" x="0" y="0.83" width="43" height="41.2262" filterUnits="userSpaceOnUse" color-interpolation-filters="sRGB">
<feFlood flood-opacity="0" result="BackgroundImageFix"/>
<feColorMatrix in="SourceAlpha" type="matrix" values="0 0 0 0 0 0 0 0 0 0 0 0 0 0 0 0 0 0 127 0"/>
<feOffset dy="0.33"/>
<feGaussianBlur stdDeviation="2"/>
<feColorMatrix type="matrix" values="0 0 0 0 0 0 0 0 0 0 0 0 0 0 0 0 0 0 0.1 0"/>
<feBlend mode="normal" in2="BackgroundImageFix" result="effect1_dropShadow"/>
<feBlend mode="normal" in="SourceGraphic" in2="effect1_dropShadow" result="shape"/>
</filter>
</defs>
</svg>
