<svg width="43" height="36" viewBox="0 0 43 36" fill="none" xmlns="http://www.w3.org/2000/svg">
<g filter="url(#filter0_d)">
<path d="M37.9988 19.0845C38.4285 18.6965 38.4399 18.0257 38.0236 17.6233L24.7382 4.78295C24.1035 4.16949 23.0432 4.61928 23.0432 5.50199V10.8621C18.0772 10.7853 14.3463 12.0842 11.5737 14.0746C8.75779 16.0962 6.9636 18.807 5.858 21.4345C4.75341 24.0595 4.32774 26.6203 4.25995 28.3761C4.22652 29.242 4.27816 29.9566 4.40223 30.3933C4.43394 30.5048 4.47678 30.622 4.53837 30.7255C4.59258 30.8167 4.70727 30.9754 4.91565 31.0417C5.16639 31.1214 5.37921 31.0191 5.50256 30.9132C5.61389 30.8176 5.6887 30.6943 5.74047 30.5908L5.74705 30.5777L5.75234 30.5653L5.75284 30.5641L5.75411 30.5613L5.76432 30.5391C5.77418 30.518 5.79023 30.4845 5.81294 30.44C5.85837 30.3509 5.93042 30.2173 6.03287 30.049C6.23783 29.7123 6.56409 29.237 7.04199 28.6994C7.99659 27.6255 9.55921 26.2993 11.979 25.3314C13.3564 24.7805 15.6523 24.5297 17.9033 24.4891C20.0514 24.4504 22.0549 24.6041 23.0432 24.822V30.3392C23.0432 31.2058 24.0703 31.6622 24.7134 31.0814L37.9988 19.0845Z" fill="#FBFBFB"/>
<path d="M33.906 17.6574C34.8657 16.5418 33.906 14.9506 33.906 14.9506L32.25 12.0469L24.7382 4.78295C24.1035 4.16949 23.0432 4.61928 23.0432 5.50199V10.8621C18.0772 10.7853 14.3463 12.0842 11.5737 14.0746C8.75779 16.0962 6.9636 18.807 5.858 21.4345C4.75341 24.0595 4.32774 26.6203 4.25995 28.3761C4.22652 29.242 4.27816 29.9566 4.40223 30.3933C4.43394 30.5048 4.47678 30.622 4.53837 30.7255C4.59258 30.8167 4.70727 30.9754 4.91565 31.0417C5.16639 31.1214 5.37921 31.0191 5.50256 30.9132C5.61389 30.8176 5.6887 30.6943 5.74047 30.5908L5.74705 30.5777L5.75234 30.5653L5.75284 30.5641L5.75411 30.5613L5.76432 30.5391C5.77418 30.518 5.79023 30.4845 5.81294 30.44C5.85837 30.3509 5.93042 30.2173 6.03287 30.049C6.23783 29.7123 6.56409 29.237 7.04199 28.6994C7.99659 27.6255 13.2932 23.8672 16.2932 22.3672C18.7932 20.8672 23.0432 19.8672 23.0432 19.8672V25.8672C23.0432 26.7337 24.0703 27.1901 24.7134 26.6094L33.906 17.6574Z" fill="white"/>
</g>
<defs>
<filter id="filter0_d" x="0.25" y="0.83" width="42.0786" height="34.8412" filterUnits="userSpaceOnUse" color-interpolation-filters="sRGB">
<feFlood flood-opacity="0" result="BackgroundImageFix"/>
<feColorMatrix in="SourceAlpha" type="matrix" values="0 0 0 0 0 0 0 0 0 0 0 0 0 0 0 0 0 0 127 0"/>
<feOffset dy="0.33"/>
<feGaussianBlur stdDeviation="2"/>
<feColorMatrix type="matrix" values="0 0 0 0 0 0 0 0 0 0 0 0 0 0 0 0 0 0 0.1 0"/>
<feBlend mode="normal" in2="BackgroundImageFix" result="effect1_dropShadow"/>
<feBlend mode="normal" in="SourceGraphic" in2="effect1_dropShadow" result="shape"/>
</filter>
</defs>
</svg>
